<?xml version="1.0" standalone="no"?>
<!DOCTYPE svg PUBLIC "-//W3C//DTD SVG 20010904//EN"
 "http://www.w3.org/TR/2001/REC-SVG-20010904/DTD/svg10.dtd">
<svg version="1.0" xmlns="http://www.w3.org/2000/svg"
 width="744.000000pt" height="744.000000pt" viewBox="0 0 744.000000 744.000000"
 preserveAspectRatio="xMidYMid meet">
<metadata>
Created by potrace 1.14, written by Peter Selinger 2001-2017
</metadata>
<g transform="translate(0.000000,744.000000) scale(0.100000,-0.100000)"
fill="#000000" stroke="none">
<path d="M3635 5420 c-51 -21 -62 -48 -150 -390 -47 -184 -88 -342 -90 -350
-3 -10 7 -20 26 -29 27 -12 45 -12 126 2 176 28 291 107 341 232 33 84 73 118
137 113 35 -3 40 -6 43 -31 3 -22 -8 -40 -58 -91 -60 -62 -61 -64 -74 -148 -8
-47 -22 -100 -31 -119 -39 -74 -124 -300 -145 -384 -14 -55 -20 -105 -17 -132
8 -78 78 -144 197 -187 l60 -22 -93 -92 -93 -92 -75 87 c-69 82 -77 88 -117
91 -34 3 -47 -2 -67 -22 -37 -37 -34 -83 11 -141 l35 -47 -23 -16 c-30 -21
-87 -78 -120 -122 -15 -19 -29 -32 -31 -30 -9 12 -117 330 -117 347 0 10 24
39 54 65 30 26 65 69 77 95 22 44 24 60 24 198 -1 104 -6 176 -18 234 -20 90
-44 171 -57 184 -4 5 -29 -22 -56 -60 -26 -37 -70 -96 -97 -130 l-49 -63 -86
0 c-48 0 -91 4 -97 8 -5 4 -22 32 -38 62 -15 30 -59 93 -99 138 -57 67 -73 81
-80 68 -5 -8 -25 -77 -44 -153 -40 -154 -49 -286 -25 -358 7 -22 37 -83 67
-136 32 -57 54 -107 54 -125 0 -20 -23 -69 -66 -140 -37 -60 -79 -134 -93
-164 l-26 -55 -6 290 c-3 160 -9 302 -14 318 l-7 27 -36 -45 c-31 -41 -39 -46
-70 -43 -37 3 -42 8 -68 73 l-16 40 -21 -52 -22 -53 -50 1 c-64 1 -79 7 -108
47 l-24 32 -7 -46 c-17 -130 -28 -451 -21 -686 l7 -258 -66 0 -66 0 0 -203 0
-203 -41 4 c-30 3 -48 -1 -70 -17 -15 -11 -31 -21 -34 -21 -3 0 -5 119 -5 264
0 145 -3 271 -6 280 -5 13 -23 16 -95 16 l-89 0 0 174 c0 96 -3 181 -6 190 -4
12 -20 16 -55 16 l-48 0 -3 63 -3 62 -95 0 -95 0 -3 -67 -3 -68 -44 0 -45 0 0
-310 0 -310 -40 0 -40 0 0 294 c0 162 -3 301 -6 310 -4 10 -18 16 -35 16 -29
0 -29 0 -29 63 0 54 -4 69 -29 103 -15 21 -31 51 -35 67 -6 26 -8 27 -81 27
l-75 0 0 -30 c0 -25 -4 -30 -24 -30 -26 0 -29 -10 -42 -132 -6 -67 -7 -68 -35
-68 l-29 0 -2 -492 c-3 -456 -4 -493 -20 -496 -16 -3 -17 30 -20 490 -3 453
-4 496 -21 521 -9 15 -26 27 -37 27 -16 0 -20 7 -20 38 0 32 -8 45 -53 90 -71
70 -101 70 -209 5 -75 -45 -78 -48 -78 -85 0 -36 -2 -38 -30 -38 l-30 0 0
-252 c0 -139 -3 -378 -7 -530 l-6 -278 -64 0 -63 0 0 -49 c0 -29 6 -53 14 -60
10 -8 951 -10 3577 -9 l3564 3 3 24 c2 13 1 39 -3 57 l-6 34 -69 0 -70 0 0
365 0 365 -27 11 c-15 6 -36 8 -46 5 -32 -8 -47 4 -47 40 0 45 -26 58 -116 58
-84 0 -104 -11 -104 -60 0 -27 -4 -34 -19 -34 -11 0 -23 5 -26 10 -3 6 -24 10
-45 10 -34 0 -39 3 -45 30 -6 29 -7 29 -88 32 l-82 3 -5 335 c-4 298 -7 338
-22 360 -10 13 -18 41 -18 61 0 26 -8 47 -26 68 -22 27 -33 31 -73 31 -51 0
-76 -17 -83 -55 -3 -18 -13 -21 -93 -26 -63 -4 -111 -14 -160 -33 -94 -36
-105 -48 -105 -109 0 -43 -2 -48 -17 -42 -10 4 -32 9 -50 12 l-32 5 -3 333
c-3 376 3 350 -88 399 -96 52 -209 45 -307 -20 l-53 -34 0 -239 0 -238 -72 -7
c-39 -3 -108 -19 -153 -35 l-81 -28 -23 50 c-28 60 -142 178 -257 265 l-82 61
-4 69 c-3 63 -8 77 -49 138 -56 85 -61 98 -49 129 21 56 110 80 189 51 30 -11
36 -19 51 -72 46 -167 143 -263 344 -339 115 -43 110 -49 102 123 -9 191 -34
484 -47 542 -23 104 -49 113 -279 100 -257 -15 -220 5 -357 -192 l-118 -170
-45 7 c-25 4 -90 9 -144 11 -55 2 -102 7 -106 11 -3 5 -32 67 -65 138 -32 72
-65 140 -72 152 -9 14 -53 35 -126 62 -180 66 -262 82 -312 61z m841 -519 c83
-39 153 -87 165 -115 8 -17 6 -37 -5 -76 -27 -91 -24 -103 46 -168 241 -221
282 -275 283 -378 0 -64 -23 -99 -86 -131 -50 -24 -207 -59 -316 -69 l-71 -7
19 -66 c10 -36 68 -250 128 -476 61 -225 115 -427 121 -447 l11 -38 75 0 75 0
21 -47 c15 -33 21 -70 22 -123 l1 -75 -145 -2 c-80 -2 -151 1 -157 5 -7 4 -45
164 -85 355 -39 191 -73 345 -75 343 -2 -2 14 -158 37 -347 24 -209 36 -347
31 -352 -5 -5 -78 -8 -168 -5 -206 5 -242 23 -259 124 -10 67 19 98 120 128
48 14 46 -11 20 239 -10 93 -21 163 -24 155 -4 -7 -13 -67 -19 -134 -7 -66
-16 -136 -20 -155 -7 -33 -8 -34 -58 -34 -62 0 -95 -22 -136 -87 -42 -67 -50
-113 -30 -167 16 -42 16 -44 -3 -58 -14 -11 -35 -13 -84 -9 -36 3 -116 6 -177
6 l-113 0 73 98 c121 162 198 307 233 437 29 107 12 257 -43 373 -25 53 -25
54 -6 75 11 12 75 83 144 157 l124 135 -80 6 c-194 14 -285 83 -271 203 12
104 79 262 160 382 41 58 42 64 44 144 2 82 2 85 39 123 82 84 175 120 297
112 60 -3 95 -12 142 -34z m1230 -123 l59 -23 3 -998 2 -997 -176 0 -175 0 6
993 7 992 25 21 c58 49 146 53 249 12z m710 -556 c1 -44 6 -68 18 -81 16 -18
17 -67 10 -700 l-7 -681 -85 0 -85 0 -52 54 c-51 54 -119 86 -182 86 l-23 0 0
624 0 624 61 22 c52 20 72 22 152 17 51 -3 100 -8 110 -12 15 -6 17 -1 17 47
0 63 5 70 40 66 24 -3 25 -6 26 -66z m-1046 -712 l0 -740 -131 0 -131 0 7 703
c4 386 11 706 15 710 14 15 174 67 208 67 l32 0 0 -740z m552 514 c15 -8 30
-24 34 -36 3 -12 3 -261 0 -552 -7 -530 -8 -531 -29 -546 -12 -8 -39 -30 -59
-49 l-38 -33 0 622 0 622 33 -7 c17 -4 44 -14 59 -21z m-3407 -16 l70 -3 8
-40 c4 -22 10 -138 14 -257 l6 -218 -86 0 -86 0 -3 -37 c-3 -34 -6 -38 -33
-41 -16 -1 -40 -5 -52 -7 l-23 -5 0 -360 c0 -353 0 -360 -20 -360 -19 0 -20 7
-20 235 l0 235 -35 0 -35 0 0 341 c0 206 5 377 12 430 l12 89 83 0 c66 0 85 3
89 15 6 14 8 14 18 1 7 -11 33 -16 81 -18z m2560 -527 l-7 -520 -22 32 c-22
32 -52 46 -140 64 -37 7 -42 12 -63 66 -23 57 -23 62 -21 409 l3 351 60 17
c82 22 119 44 151 85 17 23 31 32 37 26 6 -6 7 -197 2 -530z m-321 373 c9 -23
7 -447 -2 -461 -5 -8 -40 72 -93 209 -46 122 -84 227 -84 233 0 5 32 15 70 21
98 16 102 16 109 -2z m-3694 -38 c0 -24 5 -35 19 -39 15 -3 20 -18 25 -73 13
-129 15 -134 47 -134 l29 0 0 -455 0 -455 -150 0 -150 0 0 455 0 455 34 0 34
0 6 63 c4 34 7 82 9 107 2 38 5 45 27 50 18 4 26 13 28 33 2 19 9 27 23 27 15
0 19 -7 19 -34z m-452 -27 c29 -36 42 -61 42 -83 0 -34 15 -64 26 -54 4 4 15
3 25 -3 18 -9 19 -32 19 -504 l0 -495 -190 0 -190 0 0 500 0 499 35 7 c35 6
35 7 35 58 0 50 1 52 47 81 45 28 74 42 99 44 6 1 29 -22 52 -50z m943 -65 c7
-8 14 -40 17 -70 l4 -54 49 0 49 0 0 -160 0 -160 -48 0 -48 0 3 -157 c2 -87 4
-227 6 -310 l3 -153 -108 0 -108 0 0 470 0 470 45 0 45 0 0 51 c0 28 5 59 10
70 13 23 62 26 81 3z m2118 -175 c42 -97 55 -172 43 -247 -20 -116 -108 -262
-159 -262 -6 0 -13 35 -16 79 -7 89 -33 214 -52 251 -12 22 -10 31 18 83 27
52 116 147 137 147 4 0 17 -23 29 -51z m-1069 -138 c0 -27 -11 -92 -25 -143
-55 -200 -42 -335 46 -507 27 -52 48 -96 46 -97 -1 -1 -68 0 -149 3 l-148 6 0
353 0 354 45 0 c47 0 48 1 59 53 6 26 9 27 66 27 l60 0 0 -49z m4040 -1 c0
-38 2 -40 30 -40 l30 0 0 -300 0 -300 -95 0 -95 0 0 340 0 340 65 0 65 0 0
-40z m333 30 c24 0 27 -4 27 -35 0 -34 1 -35 38 -35 20 0 47 -3 60 -6 l22 -6
0 -344 0 -344 -90 0 -90 0 0 50 0 50 -95 0 -95 0 0 295 0 295 60 0 60 0 0 46
0 47 38 -7 c20 -3 49 -6 65 -6z m-5113 -495 l0 -285 -120 0 -120 0 0 285 0
285 120 0 120 0 0 -285z m405 -17 c-4 -106 -9 -195 -12 -198 -2 -2 -25 3 -50
12 -45 16 -48 16 -74 -3 -15 -10 -32 -19 -38 -19 -8 0 -11 62 -11 200 l0 200
96 0 96 0 -7 -192z m-971 27 c13 -19 16 -52 16 -160 l0 -135 -42 0 -41 0 6
107 c4 58 7 130 7 160 0 45 3 53 19 53 10 0 26 -11 35 -25z m4811 -114 c22
-10 63 -39 91 -65 l52 -46 330 0 330 0 7 -36 c3 -20 5 -37 3 -39 -2 -1 -392
-4 -868 -6 -826 -4 -867 -3 -912 15 -39 15 -48 23 -48 42 l0 24 350 0 351 0
35 35 c82 83 197 114 279 76z m-3992 -142 c41 22 45 23 75 7 17 -9 37 -16 45
-16 8 0 20 -7 27 -15 11 -13 -9 -15 -171 -15 l-183 0 44 45 44 45 38 -37 38
-37 43 23z"/>
<path d="M4161 4734 c-12 -15 -21 -39 -21 -54 0 -36 35 -80 65 -80 30 0 65 44
65 80 0 36 -35 80 -65 80 -14 0 -32 -11 -44 -26z"/>
<path d="M4371 4734 c-12 -15 -21 -39 -21 -54 0 -36 35 -80 65 -80 30 0 65 44
65 80 0 36 -35 80 -65 80 -14 0 -32 -11 -44 -26z"/>
<path d="M4210 4430 c-93 -32 -130 -93 -96 -159 22 -41 98 -107 141 -121 116
-38 284 52 302 163 5 32 1 41 -29 71 -64 64 -207 85 -318 46z"/>
<path d="M160 2231 l0 -231 60 0 60 0 0 89 0 88 53 6 c75 9 87 28 87 133 0 73
-3 86 -24 111 -23 26 -28 28 -130 31 l-106 4 0 -231z m155 89 c0 -44 -3 -55
-17 -58 -16 -3 -18 5 -18 58 0 53 2 61 18 58 14 -3 17 -14 17 -58z"/>
<path d="M2260 2457 c0 -1 -13 -99 -30 -217 -16 -118 -30 -221 -30 -227 0 -9
19 -13 60 -13 l60 0 0 40 c0 38 2 40 30 40 28 0 30 -2 30 -40 l0 -40 58 0 59
0 -18 118 c-10 64 -26 168 -35 230 l-17 112 -84 0 c-46 0 -83 -1 -83 -3z m104
-234 l7 -63 -27 0 c-24 0 -26 3 -21 33 4 17 9 61 13 97 7 60 8 62 15 30 4 -19
10 -63 13 -97z"/>
<path d="M4290 2405 l0 -55 -34 17 c-37 17 -75 13 -100 -13 -23 -23 -23 -305
0 -328 25 -26 63 -30 100 -13 29 15 34 15 34 2 0 -11 13 -15 55 -15 l55 0 0
230 0 230 -55 0 -55 0 0 -55z m-2 -206 c2 -103 -5 -138 -27 -125 -12 8 -16
218 -4 230 20 20 28 -9 31 -105z"/>
<path d="M4960 2230 l0 -230 55 0 55 0 1 143 c1 152 7 145 29 -40 l12 -103 38
0 37 0 13 127 c15 150 28 141 29 -19 l1 -108 50 0 50 0 0 230 0 230 -74 0
c-85 0 -80 6 -92 -113 -4 -37 -10 -70 -14 -72 -4 -3 -13 38 -20 90 l-13 95
-78 0 -79 0 0 -230z"/>
<path d="M5890 2400 c0 -20 -5 -30 -15 -30 -10 0 -15 -10 -15 -30 0 -20 5 -30
15 -30 13 0 15 -22 15 -139 0 -161 1 -163 91 -169 l59 -4 0 30 c0 21 -6 31
-20 35 -19 5 -20 14 -20 126 0 101 2 121 15 121 10 0 15 10 15 30 0 20 -5 30
-15 30 -10 0 -15 10 -15 30 0 30 -1 30 -55 30 -54 0 -55 0 -55 -30z"/>
<path d="M623 2373 c-12 -2 -33 -15 -47 -28 -21 -19 -26 -33 -26 -70 l0 -45
49 0 50 0 3 38 c4 50 33 52 33 2 0 -31 -4 -37 -40 -53 -93 -41 -90 -37 -93
-105 -2 -34 2 -70 8 -81 15 -28 73 -38 105 -17 22 14 25 15 25 1 0 -12 12 -15
55 -15 l55 0 0 156 c0 92 -4 164 -11 176 -20 37 -93 55 -166 41z m58 -296
c-30 -30 -42 42 -13 83 l17 25 3 -49 c2 -27 -1 -53 -7 -59z"/>
<path d="M920 2372 c0 -13 38 -299 45 -339 6 -33 6 -33 64 -33 66 0 61 -8 77
120 6 47 8 51 15 28 4 -14 10 -54 14 -87 l7 -61 59 0 c68 0 59 -20 84 190 8
69 17 140 20 158 l6 32 -50 0 -50 0 -7 -57 c-3 -32 -10 -78 -13 -103 l-7 -45
-7 60 c-20 159 -14 145 -62 145 -48 0 -48 1 -61 -133 -4 -37 -9 -65 -13 -62
-3 4 -10 48 -16 98 l-10 92 -48 3 c-26 2 -47 -1 -47 -6z"/>
<path d="M1482 2366 c-38 -18 -56 -57 -48 -105 6 -42 27 -65 88 -99 47 -26 68
-58 53 -81 -15 -25 -35 -11 -35 24 l0 35 -56 0 -56 0 7 -42 c4 -24 14 -51 23
-61 23 -26 83 -41 136 -33 60 9 86 41 86 107 0 57 -15 76 -90 114 -43 22 -50
29 -50 55 0 20 5 30 15 30 10 0 15 -10 15 -30 0 -29 1 -30 50 -30 l50 0 0 38
c0 54 -32 82 -101 88 -35 3 -65 -1 -87 -10z"/>
<path d="M2620 2190 l0 -190 54 0 54 0 4 109 c3 113 13 141 49 141 17 0 19 8
19 65 0 72 -8 78 -45 40 l-25 -24 0 24 c0 24 -3 25 -55 25 l-55 0 0 -190z"/>
<path d="M3003 2373 c-12 -2 -34 -18 -48 -34 -24 -29 -25 -37 -25 -145 0 -138
11 -168 68 -183 84 -24 154 -3 177 53 23 55 20 222 -5 263 -26 43 -90 61 -167
46z m73 -98 c7 -41 2 -191 -8 -200 -4 -4 -11 -4 -17 0 -12 7 -16 217 -4 228
14 14 22 6 29 -28z"/>
<path d="M3330 2215 c0 -163 0 -166 25 -190 27 -28 58 -31 98 -11 23 13 27 13
27 0 0 -10 14 -14 55 -14 l55 0 0 190 0 190 -55 0 -54 0 -3 -152 c-3 -128 -5
-153 -18 -153 -13 0 -15 25 -18 153 l-3 152 -54 0 -55 0 0 -165z"/>
<path d="M3740 2190 l0 -190 55 0 55 0 0 139 c0 147 4 171 26 171 11 0 14 -29
14 -155 l0 -155 55 0 55 0 0 166 c0 92 -4 174 -10 184 -15 27 -74 36 -105 16
-30 -20 -36 -20 -29 -1 5 12 -5 15 -55 15 l-61 0 0 -190z"/>
<path d="M5553 2373 c-12 -2 -34 -18 -48 -34 -24 -29 -25 -37 -25 -145 0 -138
11 -168 68 -183 84 -24 154 -3 177 53 23 55 20 222 -5 263 -26 43 -90 61 -167
46z m73 -98 c7 -41 2 -191 -8 -200 -4 -4 -11 -4 -17 0 -12 7 -16 217 -4 228
14 14 22 6 29 -28z"/>
<path d="M6233 2373 c-12 -2 -34 -18 -48 -34 -24 -29 -25 -37 -25 -145 0 -138
11 -168 68 -183 84 -24 154 -3 177 53 23 55 20 222 -5 263 -26 43 -90 61 -167
46z m73 -98 c7 -41 2 -191 -8 -200 -4 -4 -11 -4 -17 0 -12 7 -16 217 -4 228
14 14 22 6 29 -28z"/>
<path d="M6530 2372 c0 -13 38 -299 45 -339 6 -33 6 -33 64 -33 66 0 61 -8 77
120 6 47 8 51 15 28 4 -14 10 -54 14 -87 l7 -61 59 0 c68 0 59 -20 84 190 8
69 17 140 20 158 l6 32 -50 0 -50 0 -7 -57 c-3 -32 -10 -78 -13 -103 l-7 -45
-7 60 c-20 159 -14 145 -62 145 -48 0 -48 1 -61 -133 -4 -37 -9 -65 -13 -62
-3 4 -10 48 -16 98 l-10 92 -48 3 c-26 2 -47 -1 -47 -6z"/>
<path d="M7050 2190 l0 -190 55 0 55 0 0 139 c0 147 4 171 26 171 11 0 14 -29
14 -155 l0 -155 55 0 55 0 0 166 c0 92 -4 174 -10 184 -15 27 -74 36 -105 16
-30 -20 -36 -20 -29 -1 5 12 -5 15 -55 15 l-61 0 0 -190z"/>
</g>
</svg>
